# xmcd
#
# Track frame offsets: 
#        150
#        23301
#        40110
#        61072
#        84437
#        176428
#        197656
#        217658
#        236822
#        244594
#        268152
#        277032
#        300331
#
# Disc length: 4086 seconds
#
# Revision: 3
# Processed by: cddbd v1.5.2PL0 Copyright (c) Steve Scherf et al.
# Submitted via: ExactAudioCopy v1.0b6
#
DISCID=9e0ff40d
DTITLE=????? (??????) - THE iDOLM@STER MASTER ARTIST 07 ?????
DYEAR=2007
DGENRE=Game
TTITLE0=???
TTITLE1=???01
TTITLE2=You're My Only Shinin' Star
TTITLE3=Kiss Me Good-Bye
TTITLE4=???02
TTITLE5=?????M@STER VERSION? ???????????
TTITLE6=??????????M@STER VERSION? ???????????
TTITLE7=9:02pm (M@STER VERSION)
TTITLE8=???03
TTITLE9=i
TTITLE10=???04
TTITLE11=???????????????
TTITLE12=???05
EXTD=YEAR: 2007
EXTT0=
EXTT1=
EXTT2=
EXTT3=
EXTT4=
EXTT5=
EXTT6=
EXTT7=
EXTT8=
EXTT9=
EXTT10=
EXTT11=
EXTT12=
PLAYORDER=
